<?xml version="1.0" encoding="UTF-8" standalone="no"?>
<svg
   xmlns:dc="http://purl.org/dc/elements/1.1/"
   xmlns:cc="http://creativecommons.org/ns#"
   xmlns:rdf="http://www.w3.org/1999/02/22-rdf-syntax-ns#"
   xmlns:svg="http://www.w3.org/2000/svg"
   xmlns="http://www.w3.org/2000/svg"
   xmlns:sodipodi="http://sodipodi.sourceforge.net/DTD/sodipodi-0.dtd"
   xmlns:inkscape="http://www.inkscape.org/namespaces/inkscape"
   width="60mm"
   height="24mm"
   viewBox="0 0 60 23.999999"
   version="1.1"
   id="svg8"
   inkscape:version="1.0.2 (e86c870879, 2021-01-15)"
   sodipodi:docname="logo.svg">
  <defs
     id="defs2">
    <marker
       style="overflow:visible"
       id="Arrow1Mend"
       refX="0"
       refY="0"
       orient="auto"
       inkscape:stockid="Arrow1Mend"
       inkscape:isstock="true">
      <path
         transform="matrix(-0.4,0,0,-0.4,-4,0)"
         style="fill:#000000;fill-opacity:1;fill-rule:evenodd;stroke:#000000;stroke-width:1pt;stroke-opacity:1"
         d="M 0,0 5,-5 -12.5,0 5,5 Z"
         id="path969" />
    </marker>
    <marker
       style="overflow:visible"
       id="Arrow1Lend"
       refX="0"
       refY="0"
       orient="auto"
       inkscape:stockid="Arrow1Lend"
       inkscape:isstock="true">
      <path
         transform="matrix(-0.8,0,0,-0.8,-10,0)"
         style="fill:#000000;fill-opacity:1;fill-rule:evenodd;stroke:#000000;stroke-width:1pt;stroke-opacity:1"
         d="M 0,0 5,-5 -12.5,0 5,5 Z"
         id="path963" />
    </marker>
    <marker
       style="overflow:visible"
       id="Arrow1Lstart"
       refX="0"
       refY="0"
       orient="auto"
       inkscape:stockid="Arrow1Lstart"
       inkscape:isstock="true">
      <path
         transform="matrix(0.8,0,0,0.8,10,0)"
         style="fill:#000000;fill-opacity:1;fill-rule:evenodd;stroke:#000000;stroke-width:1pt;stroke-opacity:1"
         d="M 0,0 5,-5 -12.5,0 5,5 Z"
         id="path960" />
    </marker>
  </defs>
  <sodipodi:namedview
     id="base"
     pagecolor="#ffffff"
     bordercolor="#666666"
     borderopacity="1.0"
     inkscape:pageopacity="0.0"
     inkscape:pageshadow="2"
     inkscape:zoom="3.959798"
     inkscape:cx="98.64387"
     inkscape:cy="69.472584"
     inkscape:document-units="mm"
     inkscape:current-layer="layer1"
     inkscape:document-rotation="0"
     showgrid="true"
     inkscape:window-width="1916"
     inkscape:window-height="1041"
     inkscape:window-x="0"
     inkscape:window-y="18"
     inkscape:window-maximized="1">
    <inkscape:grid
       type="xygrid"
       id="grid10"
       units="mm"
       spacingx="1"
       spacingy="1"
       empspacing="6" />
  </sodipodi:namedview>
  <metadata
     id="metadata5">
    <rdf:RDF>
      <cc:Work
         rdf:about="">
        <dc:format>image/svg+xml</dc:format>
        <dc:type
           rdf:resource="http://purl.org/dc/dcmitype/StillImage" />
        <dc:title></dc:title>
      </cc:Work>
    </rdf:RDF>
  </metadata>
  <g
     inkscape:label="Layer 1"
     inkscape:groupmode="layer"
     id="layer1">
    <g
       aria-label="Penguin Nodes"
       transform="translate(-8.4985392,-41.326708)"
       id="text14"
       style="font-style:normal;font-weight:normal;font-size:10.5833px;line-height:1.25;font-family:sans-serif;white-space:pre;inline-size:56.2129;fill:#f80000;fill-opacity:1;stroke:#0000fe;stroke-width:0.1;stroke-miterlimit:4;stroke-dasharray:none;stroke-opacity:1">
      <path
         d="m 11.612607,61.263357 -0.433916,0.433915 h 0.740831 c 2.815158,0 2.910408,-0.01058 3.788822,-0.423332 l 0.02117,-0.09525 c -0.592664,0.0635 -0.846664,0.07408 -1.777994,0.08467 0.03175,-0.137583 0.0635,-0.275166 0.09525,-0.402166 0.04233,-0.179916 0.08467,-0.359832 0.137583,-0.624414 0.137582,-0.571499 0.148166,-0.634998 0.264582,-1.068914 0.698498,-0.04233 1.280579,-0.211666 1.926161,-0.560915 0.761997,-0.412748 1.238246,-1.153579 1.238246,-1.936743 0,-0.730248 -0.582082,-1.068914 -1.830911,-1.068914 -0.116416,0 -0.222249,0 -0.444499,0.01058 l 0.0635,-0.264583 -0.709081,0.359832 c -0.836081,0.08467 -1.312329,0.22225 -1.830911,0.539749 -0.836081,0.507998 -1.291162,1.227662 -1.291162,2.063743 0,0.306916 0.04233,0.518582 0.179916,0.857247 l 0.793747,-0.476248 c -0.126999,-0.370416 -0.158749,-0.539748 -0.158749,-0.793748 0,-0.560915 0.243416,-1.100663 0.624414,-1.407578 0.359832,-0.275166 0.730248,-0.402166 1.428746,-0.476249 -0.359832,1.640411 -0.920747,3.894654 -1.312329,5.249317 z m 3.640655,-5.333983 c 0.158749,-0.01058 0.328082,-0.02117 0.412749,-0.02117 0.666747,0 1.02658,0.328082 1.02658,0.941914 0,1.121829 -0.751415,1.947327 -1.767411,1.947327 -0.127,0 -0.201083,-0.01058 -0.370416,-0.04233 z"
         style="font-style:normal;font-variant:normal;font-weight:normal;font-stretch:normal;font-size:10.5833px;font-family:Z003;-inkscape-font-specification:'Z003, Normal';font-variant-ligatures:normal;font-variant-caps:normal;font-variant-numeric:normal;font-variant-east-asian:normal;fill:#f80000;fill-opacity:1;stroke:#0000fe;stroke-width:0.1;stroke-miterlimit:4;stroke-dasharray:none;stroke-opacity:1"
         id="path123" />
      <path
         d="m 20.269734,60.257943 c -0.846664,0.719665 -1.301746,0.984247 -1.703912,0.984247 -0.275165,0 -0.486831,-0.179916 -0.560914,-0.455082 -0.04233,-0.169333 -0.05292,-0.285749 -0.05292,-0.592665 0.486832,-0.306915 0.783164,-0.518581 1.407579,-0.984246 0.582081,-0.433916 0.793747,-0.783165 0.793747,-1.259413 0,-0.370416 -0.222249,-0.592665 -0.603248,-0.592665 -0.232832,0 -0.391582,0.05292 -0.645581,0.190499 -0.402165,0.232833 -0.761998,0.518582 -0.973664,0.772581 -0.402165,0.486832 -0.761997,1.650995 -0.761997,2.508242 0,0.624415 0.328082,1.015997 0.86783,1.015997 0.624415,0 1.428746,-0.465665 2.222493,-1.280579 z m -2.285993,-0.444498 c 0.179916,-1.142997 0.656164,-2.010827 1.12183,-2.010827 0.169332,0 0.285749,0.169332 0.285749,0.433915 0,0.529165 -0.306916,0.867831 -1.407579,1.576912 z"
         style="font-style:normal;font-variant:normal;font-weight:normal;font-stretch:normal;font-size:10.5833px;font-family:Z003;-inkscape-font-specification:'Z003, Normal';font-variant-ligatures:normal;font-variant-caps:normal;font-variant-numeric:normal;font-variant-east-asian:normal;fill:#f80000;fill-opacity:1;stroke:#0000fe;stroke-width:0.1;stroke-miterlimit:4;stroke-dasharray:none;stroke-opacity:1"
         id="path125" />
      <path
         d="m 21.582044,61.506773 0.624415,-2.487076 0.264582,-0.169333 c 0.984247,-0.613831 1.100664,-0.677331 1.24883,-0.677331 0.0635,0 0.105833,0.05292 0.105833,0.137583 0,0.169333 -0.07408,0.476249 -0.391582,1.767411 -0.232833,0.93133 -0.275166,1.12183 -0.275166,1.322913 0,0.148166 0.04233,0.275165 0.158749,0.476248 0.476249,-0.211666 1.21708,-0.677331 1.957911,-1.227663 l 0.07408,-0.296332 c -1.02658,0.592665 -1.100663,0.624415 -1.206496,0.624415 -0.105833,0 -0.169333,-0.105833 -0.169333,-0.28575 0,-0.285749 0.04233,-0.465665 0.507998,-2.148409 0.264583,-0.941914 0.264583,-0.941914 0.264583,-1.005414 0,-0.116416 -0.07408,-0.179916 -0.201083,-0.179916 -0.232832,0 -0.264582,0.02117 -1.407579,0.719664 -0.423332,0.264583 -0.698497,0.433916 -0.825497,0.518582 0.105833,-0.370415 0.253999,-1.015997 0.253999,-1.100663 0,-0.08467 -0.05292,-0.137583 -0.137583,-0.137583 -0.116416,0 -0.83608,0.370416 -1.661578,0.857247 l -0.0635,0.275166 c 0.677332,-0.306916 0.719665,-0.317499 0.814914,-0.317499 0.07408,0 0.127,0.0635 0.127,0.148166 0,0.232833 -0.190499,1.079497 -0.465665,2.063744 l -0.243416,0.857247 c -0.02117,0.07408 -0.07408,0.275166 -0.148166,0.571498 z"
         style="font-style:normal;font-variant:normal;font-weight:normal;font-stretch:normal;font-size:10.5833px;font-family:Z003;-inkscape-font-specification:'Z003, Normal';font-variant-ligatures:normal;font-variant-caps:normal;font-variant-numeric:normal;font-variant-east-asian:normal;fill:#f80000;fill-opacity:1;stroke:#0000fe;stroke-width:0.1;stroke-miterlimit:4;stroke-dasharray:none;stroke-opacity:1"
         id="path127" />
      <path
         d="m 28.947994,59.390113 c 0.04233,-0.232833 0.09525,-0.433916 0.137583,-0.603248 0.05292,-0.201083 0.105833,-0.402166 0.158749,-0.592665 l 0.05292,-0.232833 c 0.190499,-0.05292 0.201082,-0.05292 0.539748,-0.592665 -0.05292,0 -0.1905,0 -1.227663,0.02117 -0.645581,0.01058 -0.836081,0.04233 -1.142996,0.232833 -0.507999,0.306915 -0.867831,0.613831 -1.09008,0.89958 -0.317499,0.423332 -0.698498,1.682745 -0.698498,2.338909 0,0.264583 0.0635,0.455082 0.232833,0.687915 -0.645582,0.560915 -0.836081,0.719664 -1.21708,1.047746 -0.529165,0.465666 -0.772581,0.814914 -0.772581,1.111247 0,0.391582 0.455082,0.613831 1.269996,0.613831 0.973664,0 1.735661,-0.275166 2.444743,-0.888997 0.455081,-0.391582 0.560914,-0.613831 0.783164,-1.661578 z m -1.386413,2.899824 c -0.137582,0.645581 -0.232832,0.878414 -0.423332,1.079496 -0.232832,0.275166 -0.666747,0.402166 -1.291162,0.402166 -0.687915,0 -1.05833,-0.179916 -1.05833,-0.529165 0,-0.433916 0.296332,-0.698498 3.227906,-2.952741 z m -0.80433,-1.386413 c -0.1905,-0.190499 -0.264583,-0.359832 -0.264583,-0.613831 0,-0.243416 0.05292,-0.507998 0.243416,-1.132413 0.190499,-0.634998 0.338666,-0.910164 0.582082,-1.05833 0.190499,-0.127 0.423332,-0.148166 1.481661,-0.148166 h 0.338666 c -0.444499,0.328082 -0.497415,0.370415 -0.592665,0.529165 -0.08467,0.137583 -0.201082,0.539748 -0.433915,1.428745 -0.179916,0.116417 -0.211666,0.148166 -0.349249,0.243416 -0.253999,0.179916 -0.497415,0.370416 -0.730248,0.550332 z"
         style="font-style:normal;font-variant:normal;font-weight:normal;font-stretch:normal;font-size:10.5833px;font-family:Z003;-inkscape-font-specification:'Z003, Normal';font-variant-ligatures:normal;font-variant-caps:normal;font-variant-numeric:normal;font-variant-east-asian:normal;fill:#f80000;fill-opacity:1;stroke:#0000fe;stroke-width:0.1;stroke-miterlimit:4;stroke-dasharray:none;stroke-opacity:1"
         id="path129" />
      <path
         d="m 32.472229,60.31086 c -0.804331,0.550331 -1.174746,0.772581 -1.312329,0.772581 -0.116416,0 -0.201083,-0.148167 -0.201083,-0.349249 0,-0.243416 0.08467,-0.666748 0.264583,-1.344079 0.105833,-0.402166 0.211666,-0.804331 0.222249,-0.867831 0.09525,-0.402165 0.169333,-0.666748 0.190499,-0.740831 0.03175,-0.116416 0.05292,-0.222249 0.05292,-0.285749 0,-0.08467 -0.05292,-0.137583 -0.127,-0.137583 -0.105833,0 -0.86783,0.412749 -1.640411,0.888997 l -0.07408,0.285749 c 0.455082,-0.232832 0.645581,-0.306915 0.772581,-0.306915 0.08467,0 0.148166,0.07408 0.148166,0.201082 0,0.148167 -0.09525,0.560915 -0.296333,1.312329 -0.264582,0.994831 -0.328082,1.28058 -0.328082,1.587495 0,0.296333 0.127,0.518582 0.296332,0.518582 0.15875,0 0.338666,-0.09525 0.878414,-0.444498 0.825498,-0.529165 0.825498,-0.529165 1.09008,-0.709082 -0.09525,0.359833 -0.148166,0.719665 -0.148166,0.910164 0,0.148166 0.07408,0.243416 0.190499,0.243416 0.211666,0 1.206497,-0.582081 1.936744,-1.132413 l 0.07408,-0.317499 c -0.751414,0.444499 -1.100663,0.634998 -1.217079,0.634998 -0.07408,0 -0.116416,-0.07408 -0.116416,-0.253999 0,-0.539748 0.380998,-2.106077 0.846664,-3.460739 -0.137583,0.07408 -0.232833,0.126999 -0.275166,0.148166 -0.127,0.0635 -0.253999,0.127 -0.391582,0.179916 -0.03175,0.02117 -0.09525,0.05292 -0.211666,0.116416 -0.07408,0.264583 -0.243416,0.973664 -0.518582,2.127244 z"
         style="font-style:normal;font-variant:normal;font-weight:normal;font-stretch:normal;font-size:10.5833px;font-family:Z003;-inkscape-font-specification:'Z003, Normal';font-variant-ligatures:normal;font-variant-caps:normal;font-variant-numeric:normal;font-variant-east-asian:normal;fill:#f80000;fill-opacity:1;stroke:#0000fe;stroke-width:0.1;stroke-miterlimit:4;stroke-dasharray:none;stroke-opacity:1"
         id="path131" />
      <path
         d="m 36.737288,55.188543 c -0.296332,0.232832 -0.539748,0.423332 -0.730248,0.550331 0.07408,0.22225 0.169333,0.402166 0.402166,0.740831 0.296332,-0.264582 0.328082,-0.296332 0.687914,-0.571498 -0.03175,-0.0635 -0.05292,-0.105833 -0.137583,-0.243416 -0.0635,-0.126999 -0.07408,-0.126999 -0.158749,-0.338665 z m 0.402165,5.291649 -0.179916,0.09525 c -0.730247,0.402166 -0.857247,0.455082 -0.984247,0.455082 -0.116416,0 -0.190499,-0.116416 -0.190499,-0.296332 0,-0.179916 0,-0.179916 0.349249,-1.576912 0.391582,-1.608662 0.391582,-1.608662 0.391582,-1.693328 0,-0.0635 -0.05292,-0.105833 -0.127,-0.105833 -0.179916,0 -0.80433,0.349249 -1.672161,0.93133 l -0.02117,0.296333 c 0.645581,-0.349249 0.677331,-0.359832 0.77258,-0.359832 0.08467,0 0.127,0.0635 0.127,0.179916 0,0.148166 -0.03175,0.296332 -0.190499,0.89958 -0.497415,1.841494 -0.497415,1.841494 -0.497415,2.11666 0,0.253999 0.09525,0.423332 0.253999,0.423332 0.179916,0 0.465665,-0.137583 1.02658,-0.497415 0.201082,-0.127 0.402165,-0.253999 0.603248,-0.391582 0.09525,-0.05292 0.169333,-0.105833 0.296332,-0.179916 z"
         style="font-style:normal;font-variant:normal;font-weight:normal;font-stretch:normal;font-size:10.5833px;font-family:Z003;-inkscape-font-specification:'Z003, Normal';font-variant-ligatures:normal;font-variant-caps:normal;font-variant-numeric:normal;font-variant-east-asian:normal;fill:#f80000;fill-opacity:1;stroke:#0000fe;stroke-width:0.1;stroke-miterlimit:4;stroke-dasharray:none;stroke-opacity:1"
         id="path133" />
      <path
         d="m 38.123698,61.506773 0.624415,-2.487076 0.264582,-0.169333 c 0.984247,-0.613831 1.100663,-0.677331 1.248829,-0.677331 0.0635,0 0.105833,0.05292 0.105833,0.137583 0,0.169333 -0.07408,0.476249 -0.391582,1.767411 -0.232832,0.93133 -0.275165,1.12183 -0.275165,1.322913 0,0.148166 0.04233,0.275165 0.158749,0.476248 0.476248,-0.211666 1.217079,-0.677331 1.95791,-1.227663 l 0.07408,-0.296332 c -1.026581,0.592665 -1.100664,0.624415 -1.206497,0.624415 -0.105833,0 -0.169332,-0.105833 -0.169332,-0.28575 0,-0.285749 0.04233,-0.465665 0.507998,-2.148409 0.264582,-0.941914 0.264582,-0.941914 0.264582,-1.005414 0,-0.116416 -0.07408,-0.179916 -0.201082,-0.179916 -0.232833,0 -0.264583,0.02117 -1.407579,0.719664 -0.423332,0.264583 -0.698498,0.433916 -0.825497,0.518582 0.105833,-0.370415 0.253999,-1.015997 0.253999,-1.100663 0,-0.08467 -0.05292,-0.137583 -0.137583,-0.137583 -0.116416,0 -0.836081,0.370416 -1.661578,0.857247 l -0.0635,0.275166 c 0.677331,-0.306916 0.719664,-0.317499 0.814914,-0.317499 0.07408,0 0.127,0.0635 0.127,0.148166 0,0.232833 -0.1905,1.079497 -0.465666,2.063744 l -0.243415,0.857247 c -0.02117,0.07408 -0.07408,0.275166 -0.148167,0.571498 z"
         style="font-style:normal;font-variant:normal;font-weight:normal;font-stretch:normal;font-size:10.5833px;font-family:Z003;-inkscape-font-specification:'Z003, Normal';font-variant-ligatures:normal;font-variant-caps:normal;font-variant-numeric:normal;font-variant-east-asian:normal;fill:#f80000;fill-opacity:1;stroke:#0000fe;stroke-width:0.1;stroke-miterlimit:4;stroke-dasharray:none;stroke-opacity:1"
         id="path135" />
      <path
         d="m 44.007995,61.707855 c 0.275166,0.02117 0.412749,0.03175 0.582082,0.03175 0.455082,0 0.740831,-0.0635 1.015997,-0.232832 0.518581,-0.317499 1.047746,-1.05833 1.386412,-1.957911 0.169333,-0.444498 0.232832,-0.677331 0.687914,-2.518825 0.264583,1.142996 0.264583,1.153579 0.380999,1.640411 0.296333,1.21708 0.592665,2.127243 0.931331,2.804575 0.645581,1.312329 1.576911,1.95791 2.825741,1.95791 0.539748,0 0.920747,-0.09525 1.396995,-0.370415 l -0.253999,-0.941914 c -0.317499,0.740831 -0.613832,1.02658 -1.079497,1.02658 -0.666748,0 -1.280579,-0.518582 -1.820327,-1.545162 0.179916,-0.910164 0.264582,-1.322912 0.539748,-2.434159 0.455082,-1.841494 0.687915,-2.603491 1.02658,-3.301989 0.222249,-0.455082 0.476249,-0.613832 0.96308,-0.613832 0.08467,0 0.148167,0 0.285749,0.02117 l 0.391583,-0.709081 c -0.127,-0.01058 -0.243416,-0.02117 -0.328083,-0.02117 -0.444498,0 -0.920747,0.306916 -1.471078,0.952497 -0.507999,0.592665 -0.698498,1.12183 -1.21708,3.418406 -0.105833,0.497415 -0.222249,0.99483 -0.338665,1.502829 -0.01058,0.05292 -0.0635,0.275165 -0.15875,0.603248 -0.455082,-0.878414 -0.709081,-1.650995 -1.576912,-4.931818 l -0.190499,-0.687914 -0.359832,0.328082 c -0.253999,-0.02117 -0.380999,-0.03175 -0.582082,-0.03175 -0.645581,0 -1.015996,0.116416 -1.407578,0.412749 -0.666748,0.529165 -1.132414,1.291162 -1.132414,1.873244 0,0.275166 0.07408,0.539748 0.264583,0.93133 l 0.730248,-0.497415 c -0.264583,-0.571498 -0.338666,-0.793747 -0.338666,-1.068913 0,-0.317499 0.179916,-0.603248 0.476249,-0.761998 0.253999,-0.137583 0.497415,-0.179916 0.99483,-0.179916 0.264582,0 0.433915,0 0.80433,0.02117 -0.486831,2.127243 -0.89958,3.460739 -1.248829,4.085153 -0.222249,0.391582 -0.455082,0.507999 -1.015997,0.507999 -0.222249,0 -0.359832,-0.01058 -0.656164,-0.04233 z"
         style="font-style:normal;font-variant:normal;font-weight:normal;font-stretch:normal;font-size:10.5833px;font-family:Z003;-inkscape-font-specification:'Z003, Normal';font-variant-ligatures:normal;font-variant-caps:normal;font-variant-numeric:normal;font-variant-east-asian:normal;fill:#f80000;fill-opacity:1;stroke:#0000fe;stroke-width:0.1;stroke-miterlimit:4;stroke-dasharray:none;stroke-opacity:1"
         id="path137" />
      <path
         d="m 54.591275,57.358119 c -0.423332,0 -1.100663,0.306916 -1.725078,0.772581 -0.677331,0.507998 -1.15358,1.608661 -1.15358,2.666991 0,0.634998 0.359832,1.047747 0.920747,1.047747 0.296333,0 0.603248,-0.105833 1.079497,-0.359832 0.529165,-0.296332 0.878414,-0.560915 1.068913,-0.804331 0.423332,-0.582081 0.761998,-1.619245 0.761998,-2.349492 0,-0.571499 -0.391582,-0.973664 -0.952497,-0.973664 z m -0.550332,0.497415 c 0.423332,0 0.687915,0.402166 0.687915,1.047747 0,0.455082 -0.148167,0.99483 -0.402166,1.513412 -0.306915,0.603248 -0.687914,0.93133 -1.09008,0.93133 -0.433915,0 -0.709081,-0.391582 -0.709081,-0.99483 0,-1.227663 0.772581,-2.497659 1.513412,-2.497659 z"
         style="font-style:normal;font-variant:normal;font-weight:normal;font-stretch:normal;font-size:10.5833px;font-family:Z003;-inkscape-font-specification:'Z003, Normal';font-variant-ligatures:normal;font-variant-caps:normal;font-variant-numeric:normal;font-variant-east-asian:normal;fill:#f80000;fill-opacity:1;stroke:#0000fe;stroke-width:0.1;stroke-miterlimit:4;stroke-dasharray:none;stroke-opacity:1"
         id="path139" />
      <path
         d="m 60.285085,60.321443 -0.296333,0.190499 c -0.264582,0.179916 -0.444498,0.306916 -0.497415,0.338666 -0.222249,0.137583 -0.423332,0.232833 -0.476248,0.232833 -0.08467,0 -0.148167,-0.116417 -0.148167,-0.275166 0,-0.349249 0.878414,-4.180404 1.111247,-4.836568 0.232832,-0.634998 0.465665,-0.878414 0.846664,-0.878414 0.148166,0 0.243416,0.02117 0.486832,0.08467 l 0.370415,-0.592664 c -0.158749,-0.03175 -0.232832,-0.04233 -0.338665,-0.04233 -0.254,0 -0.402166,0.04233 -0.634998,0.179916 -0.264583,0.148167 -0.624415,0.423332 -0.920748,0.698498 -0.518581,0.497415 -0.550331,0.571498 -0.825497,1.661578 -0.01058,0.04233 -0.04233,0.1905 -0.08467,0.338666 -0.1905,-0.04233 -0.338666,-0.0635 -0.433916,-0.0635 -0.328082,0 -1.238246,0.571498 -1.661578,1.037163 -0.359832,0.412749 -0.83608,1.904994 -0.83608,2.635242 0,0.402165 0.211666,0.814914 0.402165,0.814914 0.201083,0 0.687915,-0.296332 1.777994,-1.09008 -0.05292,0.285749 -0.08467,0.560915 -0.08467,0.761998 0,0.211666 0.07408,0.328082 0.232833,0.328082 0.169332,0 1.090079,-0.560915 1.968493,-1.195913 z m -2.074327,0.04233 c -0.899581,0.634998 -1.132413,0.772581 -1.280579,0.772581 -0.148167,0 -0.22225,-0.148166 -0.22225,-0.465665 0,-0.349249 0.0635,-0.740831 0.1905,-1.21708 0.296332,-1.068913 0.719664,-1.598078 1.259412,-1.598078 0.201083,0 0.338666,0.07408 0.550332,0.285749 z"
         style="font-style:normal;font-variant:normal;font-weight:normal;font-stretch:normal;font-size:10.5833px;font-family:Z003;-inkscape-font-specification:'Z003, Normal';font-variant-ligatures:normal;font-variant-caps:normal;font-variant-numeric:normal;font-variant-east-asian:normal;fill:#f80000;fill-opacity:1;stroke:#0000fe;stroke-width:0.1;stroke-miterlimit:4;stroke-dasharray:none;stroke-opacity:1"
         id="path141" />
      <path
         d="m 63.703474,60.257943 c -0.846664,0.719665 -1.301746,0.984247 -1.703911,0.984247 -0.275166,0 -0.486832,-0.179916 -0.560915,-0.455082 -0.04233,-0.169333 -0.05292,-0.285749 -0.05292,-0.592665 0.486832,-0.306915 0.783164,-0.518581 1.407579,-0.984246 0.582081,-0.433916 0.793747,-0.783165 0.793747,-1.259413 0,-0.370416 -0.222249,-0.592665 -0.603248,-0.592665 -0.232832,0 -0.391582,0.05292 -0.645581,0.190499 -0.402165,0.232833 -0.761997,0.518582 -0.973663,0.772581 -0.402166,0.486832 -0.761998,1.650995 -0.761998,2.508242 0,0.624415 0.328082,1.015997 0.867831,1.015997 0.624414,0 1.428745,-0.465665 2.222492,-1.280579 z m -2.285993,-0.444498 c 0.179916,-1.142997 0.656165,-2.010827 1.12183,-2.010827 0.169333,0 0.285749,0.169332 0.285749,0.433915 0,0.529165 -0.306916,0.867831 -1.407579,1.576912 z"
         style="font-style:normal;font-variant:normal;font-weight:normal;font-stretch:normal;font-size:10.5833px;font-family:Z003;-inkscape-font-specification:'Z003, Normal';font-variant-ligatures:normal;font-variant-caps:normal;font-variant-numeric:normal;font-variant-east-asian:normal;fill:#f80000;fill-opacity:1;stroke:#0000fe;stroke-width:0.1;stroke-miterlimit:4;stroke-dasharray:none;stroke-opacity:1"
         id="path143" />
      <path
         d="m 63.798691,60.829441 c -0.01058,0.09525 -0.02117,0.179916 -0.02117,0.243416 0,0.465665 0.317499,0.772581 0.783164,0.772581 0.338666,0 0.783164,-0.126999 1.12183,-0.328082 0.634998,-0.359832 1.005414,-0.899581 1.005414,-1.428746 0,-0.391582 -0.0635,-0.476248 -0.666748,-0.846664 -0.359833,-0.232832 -0.507999,-0.433915 -0.507999,-0.709081 0,-0.359832 0.306916,-0.677331 0.666748,-0.677331 0.243416,0 0.433915,0.116416 0.656165,0.412749 0.359832,-0.349249 0.359832,-0.349249 0.497415,-0.550332 -0.211666,-0.253999 -0.412749,-0.359832 -0.709081,-0.359832 -0.772581,0 -1.767411,0.910164 -1.767411,1.619245 0,0.328082 0.169332,0.582081 0.571498,0.86783 0.529165,0.370416 0.603248,0.465666 0.603248,0.730248 0,0.380999 -0.486832,0.825498 -0.899581,0.825498 -0.232832,0 -0.412748,-0.127 -0.518581,-0.359833 -0.07408,-0.158749 -0.09525,-0.317499 -0.105833,-0.687914 -0.116416,0.09525 -0.201083,0.148166 -0.243416,0.179916 -0.08467,0.05292 -0.179916,0.105833 -0.275166,0.169333 -0.01058,0 -0.105833,0.07408 -0.190499,0.126999 z"
         style="font-style:normal;font-variant:normal;font-weight:normal;font-stretch:normal;font-size:10.5833px;font-family:Z003;-inkscape-font-specification:'Z003, Normal';font-variant-ligatures:normal;font-variant-caps:normal;font-variant-numeric:normal;font-variant-east-asian:normal;fill:#f80000;fill-opacity:1;stroke:#0000fe;stroke-width:0.1;stroke-miterlimit:4;stroke-dasharray:none;stroke-opacity:1"
         id="path145" />
    </g>
    <g
       id="g1307"
       transform="translate(-10,10.000001)">
      <circle
         style="fill:none;stroke:#0000ff;stroke-width:0.264583;stroke-opacity:1"
         id="path841-3"
         cx="22"
         cy="-4.0000019"
         r="2.5" />
      <circle
         style="fill:none;stroke:#0000ff;stroke-width:0.264583;stroke-opacity:1"
         id="path841-3-8"
         cx="28"
         cy="2"
         r="2.5" />
      <circle
         style="fill:none;stroke:#0000ff;stroke-width:0.264583;stroke-opacity:1"
         id="path841-3-1"
         cx="-52"
         cy="-4.0000019"
         r="2.5"
         transform="scale(-1,1)" />
      <ellipse
         style="fill:none;stroke:#0000ff;stroke-width:0.264583;stroke-opacity:1"
         id="path841-38"
         cx="-58"
         cy="2"
         transform="scale(-1,1)"
         rx="2.0428696"
         ry="2.5" />
      <circle
         style="fill:none;stroke:#0000ff;stroke-width:0.264583;stroke-opacity:1"
         id="path841-3-8-2"
         cx="-43"
         cy="-4.0000019"
         r="2.5"
         transform="scale(-1,1)" />
      <path
         style="fill:none;stroke:#000000;stroke-width:0.265;stroke-linecap:butt;stroke-linejoin:round;stroke-miterlimit:4;stroke-dasharray:none;stroke-opacity:1"
         d="m 22,-4.000001 h 12 9 9 l 6,6"
         id="path958"
         sodipodi:nodetypes="ccccc" />
    </g>
    <circle
       style="fill:none;stroke:#0000ff;stroke-width:0.264583;stroke-opacity:1"
       id="path841-3-8-2-0"
       cx="-24"
       cy="6"
       r="2.5"
       transform="scale(-1,1)" />
    <path
       style="fill:none;stroke:#000000;stroke-width:0.264583px;stroke-linecap:butt;stroke-linejoin:miter;stroke-opacity:1"
       d="M 18,11.999999 23.999999,6"
       id="path1331" />
  </g>
</svg>
